<svg t="1682863137440" class="icon" viewBox="0 0 1024 1024" version="1.1" xmlns="http://www.w3.org/2000/svg" p-id="1253" width="128" height="128"><path d="M861.575323 700.284778C822.658636 700.284778 786.891277 714.081831 758.997236 737.026929L759.222188 736.502041C759.222188 736.502041 706.883368 790.190572 623.276229 771.519561L372.604778 704.408897C321.090783 685.737886 298.745556 648.770783 290.572302 630.324723 284.873519 611.728696 275.800458 594.8573 263.803021 580.160439L264.027973 580.160439C264.027973 580.160439 218.21276 527.296732 235.983963 451.337959L274.90065 305.944018C289.59751 261.553501 322.440494 243.932265 339.161922 235.459076 362.706892 226.68595 382.8026 210.789346 396.74962 190.318719 406.872458 178.021346 434.166627 151.552 482.606279 149.002545L708.757968 149.002545C745.650087 152.001904 767.245474 175.771826 773.994032 184.469968 774.443936 185.144824 774.89384 185.744696 775.26876 186.344568L775.26876 186.344568C775.26876 186.344568 803.237785 223.986526 791.390316 267.702188L791.390316 267.702188 766.945538 359.107661C766.720586 359.857501 766.42065 360.607341 766.195698 361.507149 756.44778 397.87438 735.227314 415.720568 723.229876 423.143982 707.033336 428.76778 692.78638 438.665666 681.988686 451.562911 681.838719 451.712879 681.688751 451.862847 681.463799 452.087799 678.089519 456.211918 674.940192 460.710957 672.315753 465.359963 654.394581 484.555863 626.12562 485.080751 624.176037 485.080751L624.026069 485.080751 620.27687 485.080751C612.328568 484.630847 593.132668 481.631487 575.6614 462.510572 575.061529 461.610764 574.311689 460.785941 573.636833 459.886133 562.989108 444.889336 562.989108 430.342444 564.188851 422.094206L566.588339 413.246096C568.68789 407.997217 575.436449 393.900229 589.608421 386.701767 614.953007 377.028833 633.09913 352.509071 633.09913 323.790206 633.09913 286.598151 603.030554 256.529574 565.838499 256.529574 528.721428 256.529574 498.577867 286.598151 498.577867 323.790206 498.577867 336.462499 502.102114 348.234984 508.175817 358.432805 516.798975 383.477455 513.799616 402.523387 513.799616 402.523387 513.799616 402.523387 513.799616 402.598371 513.724632 402.748339L511.925016 409.571881C509.075625 416.620375 501.877162 427.418069 483.656055 436.49113 453.06259 448.038664 431.317236 477.432384 431.317236 512 431.317236 556.540485 467.384531 592.682764 512 592.682764 538.019442 592.682764 561.189492 580.385391 575.886352 561.414444 599.131387 539.594105 621.701565 538.919249 621.701565 538.919249L629.724851 538.919249C640.297593 539.744073 659.343524 544.01816 674.940192 563.139076 691.811588 589.083533 720.830389 606.179881 753.973309 606.179881 805.937208 606.179881 848.078206 564.038883 848.078206 512.074984 848.078206 489.579789 840.204888 468.884211 827.082691 452.68767 820.409117 438.440714 809.386471 409.496897 816.584934 382.277712 817.034838 380.928 817.259789 379.578288 817.559725 378.153593L842.379423 285.398407C855.50162 246.256769 890.219204 227.285822 901.241849 222.111927 941.058343 206.365291 969.177336 167.598572 969.177336 122.158279 969.177336 62.770966 920.887652 14.556265 861.500339 14.556265 828.207451 14.556265 798.363826 29.852998 778.568055 53.62292L778.643039 53.173016C778.643039 53.173016 749.399286 95.164046 693.91114 95.164046L492.804101 95.164046C437.24097 95.089062 408.297153 67.94486 397.724412 54.972632 375.979057 22.504568 338.93697 1.059149 296.945941 1.059149 230.135213 1.059149 175.921794 55.197584 175.921794 122.083295 175.921794 150.727176 185.81968 176.97157 202.39114 197.667149 222.936751 227.06087 230.360165 264.702828 220.687231 300.170252 220.537263 301.070059 220.312311 301.819899 220.162343 302.569739L184.095048 437.24097C161.449886 517.473831 95.314014 535.17005 95.314014 535.17005L95.913886 535.395002C40.500723 556.690453 1.134133 610.378984 1.134133 673.365529 1.134133 754.948101 67.344989 821.233941 149.002545 821.233941 187.094407 821.233941 221.886975 806.762032 248.056384 783.067094 265.077748 771.369593 312.692577 744.525327 375.154233 761.246755 379.278352 762.371515 383.177519 763.196339 387.001703 763.946178L609.479176 823.48346C674.865208 843.729135 703.134169 900.641977 709.582792 915.563789 731.853034 978.175414 791.540284 1022.86587 861.650307 1022.86587 950.806261 1022.86587 1022.94085 950.581309 1022.94085 861.575323 1022.86587 772.419368 950.731277 700.284778 861.575323 700.284778L861.575323 700.284778Z" fill="#1296db" p-id="1254"></path></svg>